<?xml version="1.0" encoding="utf-8"?>
<!-- Generator: Adobe Illustrator 16.0.0, SVG Export Plug-In . SVG Version: 6.00 Build 0)  -->
<!DOCTYPE svg PUBLIC "-//W3C//DTD SVG 1.1//EN" "http://www.w3.org/Graphics/SVG/1.1/DTD/svg11.dtd">
<svg version="1.1" id="Layer_1" xmlns="http://www.w3.org/2000/svg" xmlns:xlink="http://www.w3.org/1999/xlink" x="0px" y="0px"
	 width="16px" height="16px" viewBox="0 0 16 16" enable-background="new 0 0 16 16" xml:space="preserve">
<polygon opacity="0.8" fill="#319966" points="12.476,3.318 9.549,5.428 10.352,2.951 "/>
<polygon fill="#319966" points="10.352,2.951 9.549,5.428 9.516,0.339 "/>
<polygon opacity="0.4" fill="#319966" points="12.476,3.318 10.352,2.951 9.516,0.339 "/>
<polygon fill="#319966" points="9.549,5.428 13.578,5.514 10.938,6.962 "/>
<polygon fill="#319966" points="10.938,6.962 13.578,5.514 9.527,9.513 "/>
<polygon opacity="0.4" fill="#319966" points="9.549,5.428 10.938,6.962 9.527,9.513 "/>
<polygon fill="#319966" points="12.476,3.318 13.578,5.514 11.849,4.872 "/>
<polygon opacity="0.8" fill="#319966" points="11.849,4.872 13.578,5.514 9.549,5.428 "/>
<polygon fill="#319966" points="12.476,3.318 11.849,4.872 9.549,5.428 "/>
<polygon opacity="0.8" fill="#319966" points="5.487,4.37 2.561,6.48 3.365,4.003 "/>
<polygon fill="#319966" points="3.365,4.003 2.561,6.48 2.529,1.392 "/>
<polygon opacity="0.4" fill="#319966" points="5.487,4.37 3.365,4.003 2.529,1.392 "/>
<polygon opacity="0.4" fill="#319966" points="2.561,6.48 6.59,6.565 3.951,8.014 "/>
<polygon fill="#319966" points="3.951,8.014 6.59,6.565 2.54,10.565 "/>
<polygon fill="#319966" points="2.561,6.48 3.951,8.014 2.54,10.565 "/>
<polygon fill="#319966" points="5.487,4.37 6.59,6.565 4.861,5.924 "/>
<polygon fill="#319966" points="4.861,5.924 6.59,6.565 2.561,6.48 "/>
<polygon fill="#319966" points="5.487,4.37 4.861,5.924 2.561,6.48 "/>
<polygon opacity="0.8" fill="#319966" points="9.539,9.467 6.613,11.577 7.416,9.101 "/>
<polygon opacity="0.4" fill="#319966" points="7.416,9.101 6.613,11.577 6.58,6.489 "/>
<polygon fill="#319966" points="9.539,9.467 7.416,9.101 6.58,6.489 "/>
<polygon opacity="0.8" fill="#319966" points="6.613,11.577 10.642,11.663 8.002,13.112 "/>
<polygon fill="#319966" points="8.002,13.112 10.642,11.663 6.592,15.661 "/>
<polygon opacity="0.4" fill="#319966" points="6.613,11.577 8.002,13.112 6.592,15.661 "/>
<polygon fill="#319966" points="9.539,9.467 10.642,11.663 8.912,11.021 "/>
<polygon opacity="0.8" fill="#319966" points="8.912,11.021 10.642,11.663 6.613,11.577 "/>
<polygon opacity="0.4" fill="#319966" points="9.539,9.467 8.912,11.021 6.613,11.577 "/>
<polygon opacity="0.4" fill="#319966" points="10.631,11.708 13.545,9.581 12.753,12.075 "/>
<polygon fill="#319966" points="12.753,12.075 13.545,9.581 13.589,14.687 "/>
<polygon opacity="0.4" fill="#319966" points="10.631,11.708 12.753,12.075 13.589,14.687 "/>
<polygon fill="#319966" points="13.545,9.581 9.527,9.513 12.168,8.064 "/>
<polygon opacity="0.8" fill="#319966" points="12.168,8.064 9.527,9.513 13.566,5.497 "/>
<polygon opacity="0.4" fill="#319966" points="13.545,9.581 12.168,8.064 13.566,5.497 "/>
<polygon opacity="0.4" fill="#319966" points="10.631,11.708 9.527,9.513 11.257,10.154 "/>
<polygon fill="#319966" points="11.257,10.154 9.527,9.513 13.545,9.581 "/>
<polygon opacity="0.8" fill="#319966" points="10.631,11.708 11.257,10.154 13.545,9.581 "/>
<polygon fill="#319966" points="3.654,12.638 6.568,10.511 5.777,13.005 "/>
<polygon opacity="0.8" fill="#319966" points="5.777,13.005 6.568,10.511 6.613,15.616 "/>
<polygon fill="#319966" points="3.654,12.638 5.777,13.005 6.613,15.616 "/>
<polygon fill="#319966" points="6.568,10.511 2.551,10.443 5.191,8.994 "/>
<polygon opacity="0.8" fill="#319966" points="5.191,8.994 2.551,10.443 6.589,6.426 "/>
<polygon opacity="0.4" fill="#319966" points="6.568,10.511 5.191,8.994 6.589,6.426 "/>
<polygon opacity="0.4" fill="#319966" points="3.654,12.638 2.551,10.443 4.28,11.084 "/>
<polygon fill="#319966" points="4.28,11.084 2.551,10.443 6.568,10.511 "/>
<polygon opacity="0.8" fill="#319966" points="3.654,12.638 4.28,11.084 6.568,10.511 "/>
<polygon fill="#319966" points="6.58,6.489 9.551,4.361 8.703,6.855 "/>
<polygon fill="#319966" points="8.703,6.855 9.551,4.361 9.527,9.513 "/>
<polygon opacity="0.8" fill="#319966" points="6.58,6.489 8.703,6.855 9.527,9.513 "/>
<polygon opacity="0.8" fill="#319966" points="9.551,4.361 5.477,4.293 8.117,2.844 "/>
<polygon fill="#319966" points="8.117,2.844 5.477,4.293 9.516,0.339 "/>
<polygon opacity="0.8" fill="#319966" points="9.551,4.361 8.117,2.844 9.516,0.339 "/>
<polygon opacity="0.4" fill="#319966" points="6.58,6.489 5.477,4.293 7.207,4.934 "/>
<polygon fill="#319966" points="7.207,4.934 5.477,4.293 9.56,4.361 "/>
<polygon opacity="0.8" fill="#319966" points="6.58,6.489 7.207,4.934 9.551,4.361 "/>
</svg>
