<?xml version="1.0" encoding="utf-8"?>
<!-- Generator: Adobe Illustrator 16.0.0, SVG Export Plug-In . SVG Version: 6.00 Build 0)  -->
<!DOCTYPE svg PUBLIC "-//W3C//DTD SVG 1.1//EN" "http://www.w3.org/Graphics/SVG/1.1/DTD/svg11.dtd">
<svg version="1.1" id="Layer_1" xmlns="http://www.w3.org/2000/svg" xmlns:xlink="http://www.w3.org/1999/xlink" x="0px" y="0px"
	 width="116.428px" height="117.135px" viewBox="0 0 116.428 117.135" enable-background="new 0 0 116.428 117.135"
	 xml:space="preserve">
<g>
	<path fill-rule="evenodd" clip-rule="evenodd" fill="#FFFFFF" d="M116.428,117.135c-38.899,0-77.653,0-116.428,0
		C0,78.104,0,39.074,0,0c38.801,0,77.623,0,116.428,0C116.428,39.017,116.428,78.076,116.428,117.135z M58.659,35.517
		c5.829,0,11.658,0.043,17.485-0.01c9.656-0.087,17.414-7.862,17.453-17.421c0.038-9.491-7.804-17.46-17.382-17.513
		C64.461,0.509,52.707,0.504,40.953,0.576c-9.635,0.058-17.271,7.933-17.21,17.585c0.059,9.553,7.617,17.238,17.14,17.341
		C46.808,35.567,52.733,35.514,58.659,35.517z M58.443,75.201c0-11.389,0-22.876,0-34.42c-0.689-0.088-1.164-0.204-1.637-0.203
		c-5.826,0.019-11.665-0.18-17.475,0.143c-8.475,0.471-15.568,7.626-16.011,15.707c-0.512,9.349,5.067,17.503,13.92,18.603
		C44.105,75.883,51.161,75.201,58.443,75.201z M58.91,80.505c-6.791,0-12.9-0.266-18.977,0.062
		c-9.07,0.49-16.006,7.847-16.455,16.941c-0.413,8.352,6.287,16.566,14.525,17.81c9.186,1.387,18.094-3.743,19.737-12.674
		C59.052,95.511,58.58,88.049,58.91,80.505z M77.815,75.917c9.594-0.003,17.34-7.71,17.446-17.357
		c0.106-9.617-7.885-17.72-17.466-17.71c-9.627,0.01-17.659,8.008-17.657,17.584C60.14,68.083,68.064,75.92,77.815,75.917z"/>
	<path fill-rule="evenodd" clip-rule="evenodd" d="M58.659,35.516c-5.926-0.001-11.852,0.051-17.777-0.014
		c-9.523-0.104-17.081-7.789-17.14-17.341c-0.06-9.652,7.575-17.527,17.21-17.585c11.754-0.071,23.508-0.067,35.262-0.002
		c9.579,0.053,17.42,8.022,17.382,17.513c-0.039,9.559-7.797,17.333-17.453,17.421C70.317,35.56,64.488,35.517,58.659,35.516z"/>
	<path fill-rule="evenodd" clip-rule="evenodd" d="M58.443,75.201c-7.282,0-14.338,0.683-21.203-0.17
		c-8.853-1.1-14.433-9.254-13.92-18.603c0.443-8.081,7.536-15.236,16.011-15.707c5.81-0.323,11.649-0.124,17.475-0.143
		c0.474-0.001,0.948,0.114,1.637,0.203C58.443,52.324,58.443,63.812,58.443,75.201z"/>
	<path fill-rule="evenodd" clip-rule="evenodd" d="M58.91,80.505c-0.33,7.544,0.143,15.005-1.169,22.139
		c-1.643,8.931-10.552,14.061-19.737,12.674c-8.238-1.244-14.938-9.458-14.525-17.81c0.449-9.095,7.385-16.451,16.455-16.941
		C46.01,80.239,52.119,80.505,58.91,80.505z"/>
	<path fill-rule="evenodd" clip-rule="evenodd" d="M77.815,75.917c-9.751,0.003-17.676-7.834-17.677-17.483
		c-0.001-9.577,8.03-17.575,17.657-17.584c9.581-0.009,17.572,8.094,17.466,17.71C95.156,68.207,87.409,75.914,77.815,75.917z"/>
</g>
</svg>
