<?xml version="1.0" encoding="iso-8859-1"?>
<!-- Generator: Adobe Illustrator 19.0.0, SVG Export Plug-In . SVG Version: 6.00 Build 0)  -->
<svg version="1.1" id="Capa_1" xmlns="http://www.w3.org/2000/svg" xmlns:xlink="http://www.w3.org/1999/xlink" x="0px" y="0px"
	 viewBox="0 0 512 512" style="enable-background:new 0 0 512 512;" xml:space="preserve">
<g>
	<g>
		<path d="M423.009,424.003c-5.522,0-10,4.477-10,10v14.026l-20.605,50.156c-2.099,5.109,0.342,10.951,5.45,13.05
			c1.243,0.511,2.53,0.752,3.796,0.752c3.935,0,7.666-2.337,9.254-6.202l21.355-51.982c0.495-1.206,0.75-2.497,0.75-3.8v-16
			C433.009,428.48,428.531,424.003,423.009,424.003z"/>
	</g>
</g>
<g>
	<g>
		<path d="M430.08,387.933c-1.86-1.86-4.44-2.93-7.07-2.93s-5.21,1.07-7.07,2.93c-1.859,1.86-2.93,4.44-2.93,7.07
			s1.07,5.21,2.93,7.07c1.86,1.86,4.44,2.93,7.07,2.93s5.21-1.07,7.07-2.93c1.859-1.86,2.93-4.44,2.93-7.07
			S431.94,389.793,430.08,387.933z"/>
	</g>
</g>
<g>
	<g>
		<path d="M282.763,106.848c-30.413-30.413-79.898-30.412-110.31,0c-22.366,22.367-29.02,55.711-16.949,84.949
			c1.592,3.857,5.318,6.187,9.247,6.187c1.271,0,2.564-0.244,3.812-0.759c5.105-2.107,7.535-7.954,5.428-13.059
			c-8.977-21.744-4.028-46.542,12.605-63.175c22.614-22.614,59.41-22.615,82.024,0c16.006,16.006,21.244,40.062,13.348,61.284
			c-1.926,5.176,0.709,10.934,5.885,12.859c5.173,1.925,10.933-0.708,12.859-5.885C311.33,160.715,304.284,128.371,282.763,106.848z
			"/>
	</g>
</g>
<g>
	<g>
		<path d="M314.091,233.911c-3.905-3.906-10.236-3.906-14.142,0l-0.217,0.217c-3.905,3.905-3.905,10.237,0,14.143
			c1.953,1.953,4.512,2.929,7.071,2.929s5.118-0.976,7.071-2.929l0.217-0.217C317.996,244.149,317.996,237.817,314.091,233.911z"/>
	</g>
</g>
<g>
	<g>
		<path d="M502,0.003H10c-5.522,0-10,4.477-10,10v320c0,5.523,4.478,10,10,10h86.397c-3.485,6.015-5.351,12.862-5.351,20
			c0,10.685,4.161,20.729,11.716,28.285l120.78,120.78c1.953,1.953,4.512,2.929,7.071,2.929c2.559,0,5.118-0.977,7.071-2.929
			c3.905-3.905,3.905-10.237,0-14.142l-27.752-27.752c0.063-0.453,0.107-0.912,0.107-1.383V352.503h11c5.522,0,10-4.477,10-10
			s-4.478-10-10-10h-11V294.44h11c5.522,0,10-4.477,10-10s-4.478-10-10-10h-11v-49.938h11c5.522,0,10-4.477,10-10
			c0-5.523-4.478-10-10-10h-11v-26c0-9.925,8.075-18,18-18s18,8.075,18,18v163c0,0.472,0.044,0.934,0.107,1.389
			c0.206,5.341,4.589,9.611,9.98,9.611c5.522,0,10-4.477,10-10v-30.249c0-9.822,7.991-17.813,17.813-17.813
			c9.822,0,17.813,7.991,17.813,17.813v30.249c0,5.523,4.478,10,10,10c5.522,0,10-4.477,10-10V321.91
			c0-9.822,7.991-17.813,17.814-17.813c9.822,0,17.813,7.991,17.813,17.813v20.593c0,5.523,4.478,10,10,10c5.522,0,10-4.477,10-10
			v-6.687c0-9.822,7.991-17.813,17.813-17.813c9.822,0,17.813,7.991,17.813,17.813v24.187c0,5.523,4.478,10,10,10
			c5.522,0,10-4.477,10-10v-20H502c5.522,0,10-4.477,10-10v-320C512,4.48,507.522,0.003,502,0.003z M20,130.003h20v20H20V130.003z
			 M190.039,447.281l-27.277-27.278l6.953-6.952c3.905-3.905,3.905-10.237,0-14.142c-3.905-3.905-10.235-3.905-14.143,0
			l-6.953,6.952l-31.715-31.715c-3.777-3.777-5.858-8.8-5.858-14.142c0-5.342,2.081-10.365,5.858-14.142
			c7.798-7.798,20.485-7.798,28.283,0l44.852,44.851V447.281z M190.039,362.427l-22.424-22.424h22.424V362.427z M492,320.003
			h-62.469c-5.999-12.973-19.129-22-34.335-22c-8.129,0-15.662,2.587-21.834,6.97c-6.224-12.367-19.03-20.876-33.793-20.876
			c-8.881,0-17.051,3.085-23.511,8.23c-6.68-10.727-18.576-17.886-32.117-17.886c-6.473,0-12.569,1.637-17.901,4.515V178.503
			c0-20.953-17.047-38-38-38s-38,17.047-38,38v141.5H20v-150h30c5.522,0,10-4.477,10-10v-40c0-5.523-4.478-10-10-10H20v-90h472
			V320.003z"/>
	</g>
</g>
<g>
	<g>
		<path d="M458,54.003h-56c-5.522,0-10,4.477-10,10v56c0,5.523,4.478,10,10,10h56c5.522,0,10-4.477,10-10v-56
			C468,58.48,463.522,54.003,458,54.003z M448,110.003h-36v-36h36V110.003z"/>
	</g>
</g>
<g>
	<g>
		<path d="M458,226.003h-40c-5.522,0-10,4.477-10,10v40c0,5.523,4.478,10,10,10h40c5.522,0,10-4.477,10-10v-40
			C468,230.48,463.522,226.003,458,226.003z M448,266.003h-20v-20h20V266.003z"/>
	</g>
</g>
<g>
	<g>
		<path d="M419.364,152.003h-40c-5.522,0-10,4.477-10,10v40c0,5.523,4.478,10,10,10h40c5.522,0,10-4.477,10-10v-40
			C429.364,156.48,424.886,152.003,419.364,152.003z M409.364,192.003h-20v-20h20V192.003z"/>
	</g>
</g>
<g>
	<g>
		<path d="M84,34.003H44c-5.522,0-10,4.477-10,10v40c0,5.523,4.478,10,10,10h40c5.522,0,10-4.477,10-10v-40
			C94,38.48,89.522,34.003,84,34.003z M74,74.003H54v-20h20V74.003z"/>
	</g>
</g>
<g>
	<g>
		<path d="M313.873,75.734c-23.043-23.043-53.68-35.733-86.267-35.733c-32.588,0-63.225,12.69-86.268,35.733
			c-23.043,23.043-35.733,53.68-35.733,86.267c0,17.742,3.77,34.903,10.917,50.578c-1.759-1.546-4.062-2.493-6.591-2.493h-56
			c-5.522,0-10,4.477-10,10v56c0,5.523,4.478,10,10,10h56c5.522,0,10-4.477,10-10v-56c0-0.225-0.019-0.446-0.034-0.668
			c5.608,10.488,12.797,20.204,21.444,28.851c1.953,1.953,4.512,2.929,7.071,2.929c2.559,0,5.118-0.977,7.071-2.929
			c3.905-3.905,3.905-10.237,0-14.142c-19.266-19.265-29.876-44.879-29.876-72.125c0-27.246,10.61-52.859,29.876-72.125
			c19.265-19.266,44.879-29.875,72.125-29.875c27.245,0,52.859,10.61,72.124,29.875c31.28,31.28,38.877,78.787,18.901,118.215
			c-2.495,4.926-0.525,10.944,4.401,13.439c4.927,2.495,10.943,0.526,13.44-4.401C360.367,169.967,351.285,113.145,313.873,75.734z
			 M99.931,266.086h-36v-36h36V266.086z"/>
	</g>
</g>
<g>
	<g>
		<path d="M311.754,369.003c-39.42,0-71.49,32.071-71.49,71.491c0,39.42,32.07,71.491,71.49,71.491s71.491-32.071,71.491-71.491
			C383.245,401.074,351.174,369.003,311.754,369.003z M311.754,491.985c-28.392,0-51.49-23.099-51.49-51.491
			c0-28.392,23.099-51.491,51.49-51.491c28.393,0,51.491,23.099,51.491,51.491C363.245,468.886,340.146,491.985,311.754,491.985z"/>
	</g>
</g>
<g>
	<g>
		<path d="M335.667,430.494c-5.522,0-10,4.477-10,10c0,7.672-6.241,13.914-13.913,13.914s-13.913-6.242-13.913-13.914
			s6.241-13.913,13.913-13.913c5.522,0,10-4.477,10-10s-4.478-10-10-10c-18.7,0-33.913,15.213-33.913,33.913
			c0,18.7,15.213,33.914,33.913,33.914c18.7,0,33.913-15.213,33.913-33.914C345.667,434.971,341.189,430.494,335.667,430.494z"/>
	</g>
</g>
<g>
</g>
<g>
</g>
<g>
</g>
<g>
</g>
<g>
</g>
<g>
</g>
<g>
</g>
<g>
</g>
<g>
</g>
<g>
</g>
<g>
</g>
<g>
</g>
<g>
</g>
<g>
</g>
<g>
</g>
</svg>
