<?xml version="1.0" encoding="utf-8"?>
<!-- Generator: Adobe Illustrator 16.0.0, SVG Export Plug-In . SVG Version: 6.00 Build 0)  -->
<!DOCTYPE svg PUBLIC "-//W3C//DTD SVG 1.1//EN" "http://www.w3.org/Graphics/SVG/1.1/DTD/svg11.dtd">
<svg version="1.1" id="Layer_1" xmlns="http://www.w3.org/2000/svg" xmlns:xlink="http://www.w3.org/1999/xlink" x="0px" y="0px"
	 width="31.896px" height="20.001px" viewBox="0 0 31.896 20.001" enable-background="new 0 0 31.896 20.001" xml:space="preserve">
<polygon fill="#FFFFFF" points="14.014,3.978 10.106,6.795 11.179,3.488 "/>
<polygon fill="#FFFFFF" points="11.179,3.488 10.106,6.795 10.062,0 "/>
<polygon opacity="0.4" fill="#FFFFFF" points="14.014,3.978 11.179,3.488 10.062,0 "/>
<polygon fill="#FFFFFF" points="10.106,6.795 15.487,6.91 11.961,8.844 "/>
<polygon opacity="0.4" fill="#FFFFFF" points="11.961,8.844 15.487,6.91 10.078,12.25 "/>
<polygon opacity="0.8" fill="#FFFFFF" points="10.106,6.795 11.961,8.844 10.078,12.25 "/>
<polygon opacity="0.4" fill="#FFFFFF" points="14.014,3.978 15.487,6.91 13.177,6.053 "/>
<polygon fill="#FFFFFF" points="13.177,6.053 15.487,6.91 10.106,6.795 "/>
<polygon opacity="0.8" fill="#FFFFFF" points="14.014,3.978 13.177,6.053 10.106,6.795 "/>
<polygon fill="#FFFFFF" points="4.683,5.383 0.775,8.201 1.849,4.893 "/>
<polygon opacity="0.6" fill="#FFFFFF" points="1.849,4.893 0.775,8.201 0.732,1.406 "/>
<polygon opacity="0.8" fill="#FFFFFF" points="4.683,5.383 1.849,4.893 0.732,1.406 "/>
<polygon fill="#FFFFFF" points="0.775,8.201 6.156,8.315 2.63,10.249 "/>
<polygon opacity="0.4" fill="#FFFFFF" points="2.63,10.249 6.156,8.315 0.747,13.655 "/>
<polygon opacity="0.5" fill="#FFFFFF" points="0.775,8.201 2.63,10.249 0.747,13.655 "/>
<polygon opacity="0.4" fill="#FFFFFF" points="4.683,5.383 6.156,8.315 3.846,7.458 "/>
<polygon fill="#FFFFFF" points="3.846,7.458 6.156,8.315 0.775,8.201 "/>
<polygon opacity="0.8" fill="#FFFFFF" points="4.683,5.383 3.846,7.458 0.775,8.201 "/>
<polygon opacity="0.8" fill="#FFFFFF" points="10.093,12.189 6.186,15.006 7.259,11.7 "/>
<polygon fill="#FFFFFF" points="7.259,11.7 6.186,15.006 6.142,8.212 "/>
<polygon opacity="0.6" fill="#FFFFFF" points="10.093,12.189 7.259,11.7 6.142,8.212 "/>
<polygon fill="#FFFFFF" points="6.186,15.006 11.567,15.122 8.041,17.056 "/>
<polygon opacity="0.5" fill="#FFFFFF" points="8.041,17.056 11.567,15.122 6.158,20.461 "/>
<polygon opacity="0.8" fill="#FFFFFF" points="6.186,15.006 8.041,17.056 6.158,20.461 "/>
<polygon opacity="0.6" fill="#FFFFFF" points="10.093,12.189 11.567,15.122 9.256,14.265 "/>
<polygon opacity="0.8" fill="#FFFFFF" points="9.256,14.265 11.567,15.122 6.186,15.006 "/>
<polygon fill="#FFFFFF" points="10.093,12.189 9.256,14.265 6.186,15.006 "/>
<polygon fill="#FFFFFF" points="11.551,15.182 15.443,12.342 14.385,15.672 "/>
<polygon opacity="0.4" fill="#FFFFFF" points="14.385,15.672 15.443,12.342 15.502,19.16 "/>
<polygon opacity="0.8" fill="#FFFFFF" points="11.551,15.182 14.385,15.672 15.502,19.16 "/>
<polygon opacity="0.6" fill="#FFFFFF" points="15.443,12.342 10.078,12.25 13.604,10.315 "/>
<polygon fill="#FFFFFF" points="13.604,10.315 10.078,12.25 15.471,6.887 "/>
<polygon opacity="0.8" fill="#FFFFFF" points="15.443,12.342 13.604,10.315 15.471,6.887 "/>
<polygon fill="#FFFFFF" points="11.551,15.182 10.078,12.25 12.387,13.107 "/>
<polygon fill="#FFFFFF" points="12.387,13.107 10.078,12.25 15.443,12.342 "/>
<polygon opacity="0.4" fill="#FFFFFF" points="11.551,15.182 12.387,13.107 15.443,12.342 "/>
<polygon opacity="0.4" fill="#FFFFFF" points="2.234,16.424 6.126,13.584 5.069,16.914 "/>
<polygon fill="#FFFFFF" points="5.069,16.914 6.126,13.584 6.186,20.401 "/>
<polygon opacity="0.8" fill="#FFFFFF" points="2.234,16.424 5.069,16.914 6.186,20.401 "/>
<polygon opacity="0.8" fill="#FFFFFF" points="6.126,13.584 0.762,13.492 4.287,11.558 "/>
<polygon opacity="0.8" fill="#FFFFFF" points="4.287,11.558 0.762,13.492 6.154,8.128 "/>
<polygon fill="#FFFFFF" points="6.126,13.584 4.287,11.558 6.154,8.128 "/>
<polygon opacity="0.4" fill="#FFFFFF" points="2.234,16.424 0.762,13.492 3.071,14.348 "/>
<polygon fill="#FFFFFF" points="3.071,14.348 0.762,13.492 6.126,13.584 "/>
<polygon fill="#FFFFFF" points="2.234,16.424 3.071,14.348 6.126,13.584 "/>
<polygon fill="#FFFFFF" points="6.142,8.212 10.109,5.372 8.977,8.701 "/>
<polygon opacity="0.5" fill="#FFFFFF" points="8.977,8.701 10.109,5.372 10.078,12.25 "/>
<polygon opacity="0.8" fill="#FFFFFF" points="6.142,8.212 8.977,8.701 10.078,12.25 "/>
<polygon opacity="0.4" fill="#FFFFFF" points="10.109,5.372 4.669,5.28 8.195,3.345 "/>
<polygon fill="#FFFFFF" points="8.195,3.345 4.669,5.28 10.062,0 "/>
<polygon opacity="0.8" fill="#FFFFFF" points="10.109,5.372 8.195,3.345 10.062,0 "/>
<polygon fill="#FFFFFF" points="6.142,8.212 4.669,5.28 6.979,6.137 "/>
<polygon fill="#FFFFFF" points="6.979,6.137 4.669,5.28 10.122,5.372 "/>
<polygon opacity="0.8" fill="#FFFFFF" points="6.142,8.212 6.979,6.137 10.109,5.372 "/>
<polygon fill="#FFFFFF" points="30.175,3.978 26.267,6.795 27.34,3.488 "/>
<polygon fill="#FFFFFF" points="27.34,3.488 26.267,6.795 26.223,0 "/>
<polygon opacity="0.4" fill="#FFFFFF" points="30.175,3.978 27.34,3.488 26.223,0 "/>
<polygon fill="#FFFFFF" points="26.267,6.795 31.648,6.91 28.123,8.844 "/>
<polygon opacity="0.4" fill="#FFFFFF" points="28.123,8.844 31.648,6.91 26.239,12.25 "/>
<polygon opacity="0.8" fill="#FFFFFF" points="26.267,6.795 28.123,8.844 26.239,12.25 "/>
<polygon opacity="0.4" fill="#FFFFFF" points="30.175,3.978 31.648,6.91 29.338,6.053 "/>
<polygon fill="#FFFFFF" points="29.338,6.053 31.648,6.91 26.267,6.795 "/>
<polygon opacity="0.8" fill="#FFFFFF" points="30.175,3.978 29.338,6.053 26.267,6.795 "/>
<polygon fill="#FFFFFF" points="20.844,5.383 16.936,8.201 18.009,4.893 "/>
<polygon opacity="0.6" fill="#FFFFFF" points="18.009,4.893 16.936,8.201 16.893,1.406 "/>
<polygon opacity="0.8" fill="#FFFFFF" points="20.844,5.383 18.009,4.893 16.893,1.406 "/>
<polygon fill="#FFFFFF" points="16.936,8.201 22.316,8.315 18.791,10.249 "/>
<polygon opacity="0.4" fill="#FFFFFF" points="18.791,10.249 22.316,8.315 16.909,13.655 "/>
<polygon opacity="0.5" fill="#FFFFFF" points="16.936,8.201 18.791,10.249 16.909,13.655 "/>
<polygon opacity="0.4" fill="#FFFFFF" points="20.844,5.383 22.316,8.315 20.008,7.458 "/>
<polygon fill="#FFFFFF" points="20.008,7.458 22.316,8.315 16.936,8.201 "/>
<polygon opacity="0.8" fill="#FFFFFF" points="20.844,5.383 20.008,7.458 16.936,8.201 "/>
<polygon opacity="0.8" fill="#FFFFFF" points="26.255,12.189 22.347,15.006 23.42,11.7 "/>
<polygon fill="#FFFFFF" points="23.42,11.7 22.347,15.006 22.304,8.212 "/>
<polygon opacity="0.6" fill="#FFFFFF" points="26.255,12.189 23.42,11.7 22.304,8.212 "/>
<polygon fill="#FFFFFF" points="22.347,15.006 27.728,15.122 24.203,17.056 "/>
<polygon opacity="0.5" fill="#FFFFFF" points="24.203,17.056 27.728,15.122 22.318,20.461 "/>
<polygon opacity="0.8" fill="#FFFFFF" points="22.347,15.006 24.203,17.056 22.318,20.461 "/>
<polygon opacity="0.6" fill="#FFFFFF" points="26.255,12.189 27.728,15.122 25.417,14.265 "/>
<polygon opacity="0.8" fill="#FFFFFF" points="25.417,14.265 27.728,15.122 22.347,15.006 "/>
<polygon fill="#FFFFFF" points="26.255,12.189 25.417,14.265 22.347,15.006 "/>
<polygon fill="#FFFFFF" points="27.711,15.182 31.604,12.342 30.547,15.672 "/>
<polygon opacity="0.4" fill="#FFFFFF" points="30.547,15.672 31.604,12.342 31.663,19.16 "/>
<polygon opacity="0.8" fill="#FFFFFF" points="27.711,15.182 30.547,15.672 31.663,19.16 "/>
<polygon opacity="0.6" fill="#FFFFFF" points="31.604,12.342 26.239,12.25 29.765,10.315 "/>
<polygon fill="#FFFFFF" points="29.765,10.315 26.239,12.25 31.632,6.887 "/>
<polygon opacity="0.8" fill="#FFFFFF" points="31.604,12.342 29.765,10.315 31.632,6.887 "/>
<polygon fill="#FFFFFF" points="27.711,15.182 26.239,12.25 28.548,13.107 "/>
<polygon fill="#FFFFFF" points="28.548,13.107 26.239,12.25 31.604,12.342 "/>
<polygon opacity="0.4" fill="#FFFFFF" points="27.711,15.182 28.548,13.107 31.604,12.342 "/>
<polygon opacity="0.4" fill="#FFFFFF" points="18.396,16.424 22.287,13.584 21.229,16.914 "/>
<polygon fill="#FFFFFF" points="21.229,16.914 22.287,13.584 22.347,20.401 "/>
<polygon opacity="0.8" fill="#FFFFFF" points="18.396,16.424 21.229,16.914 22.347,20.401 "/>
<polygon opacity="0.8" fill="#FFFFFF" points="22.287,13.584 16.923,13.492 20.447,11.558 "/>
<polygon opacity="0.8" fill="#FFFFFF" points="20.447,11.558 16.923,13.492 22.315,8.128 "/>
<polygon fill="#FFFFFF" points="22.287,13.584 20.447,11.558 22.315,8.128 "/>
<polygon opacity="0.4" fill="#FFFFFF" points="18.396,16.424 16.923,13.492 19.232,14.348 "/>
<polygon fill="#FFFFFF" points="19.232,14.348 16.923,13.492 22.287,13.584 "/>
<polygon fill="#FFFFFF" points="18.396,16.424 19.232,14.348 22.287,13.584 "/>
<polygon fill="#FFFFFF" points="22.304,8.212 26.271,5.372 25.138,8.701 "/>
<polygon opacity="0.5" fill="#FFFFFF" points="25.138,8.701 26.271,5.372 26.239,12.25 "/>
<polygon opacity="0.8" fill="#FFFFFF" points="22.304,8.212 25.138,8.701 26.239,12.25 "/>
<polygon opacity="0.4" fill="#FFFFFF" points="26.271,5.372 20.83,5.28 24.355,3.345 "/>
<polygon fill="#FFFFFF" points="24.355,3.345 20.83,5.28 26.223,0 "/>
<polygon opacity="0.8" fill="#FFFFFF" points="26.271,5.372 24.355,3.345 26.223,0 "/>
<polygon fill="#FFFFFF" points="22.304,8.212 20.83,5.28 23.142,6.137 "/>
<polygon fill="#FFFFFF" points="23.142,6.137 20.83,5.28 26.283,5.372 "/>
<polygon opacity="0.8" fill="#FFFFFF" points="22.304,8.212 23.142,6.137 26.271,5.372 "/>
</svg>
